<?xml version="1.0" standalone="no"?>
<!DOCTYPE svg PUBLIC "-//W3C//DTD SVG 20010904//EN"
 "http://www.w3.org/TR/2001/REC-SVG-20010904/DTD/svg10.dtd">
<svg version="1.0" xmlns="http://www.w3.org/2000/svg"
 width="658.000000pt" height="658.000000pt" viewBox="0 0 658.000000 658.000000"
 preserveAspectRatio="xMidYMid meet">
<metadata>
Created by potrace 1.11, written by Peter Selinger 2001-2013
</metadata>
<g transform="translate(0.000000,658.000000) scale(0.100000,-0.100000)"
fill="#000000" stroke="none">
<path d="M565 6540 c332 -3 554 -8 531 -13 -21 -5 -36 -11 -33 -13 3 -3 31 1
64 10 32 9 69 17 83 19 14 3 -254 4 -595 3 l-620 -1 570 -5z"/>
<path d="M5390 6543 c14 -3 55 -13 92 -22 37 -10 65 -15 62 -10 -2 5 -21 12
-42 16 -21 5 211 10 523 13 l560 5 -610 1 c-335 1 -599 -1 -585 -3z"/>
<path d="M953 6487 c-17 -7 -35 -15 -39 -19 -4 -5 -211 -8 -461 -8 l-453 0 0
-3230 0 -3230 3290 0 3290 0 0 3230 0 3230 -445 0 c-364 0 -450 3 -468 14 -12
8 -33 17 -47 21 -14 3 40 -27 120 -68 79 -40 160 -88 180 -105 19 -17 46 -40
60 -51 l25 -20 -2710 0 -2710 0 26 22 c80 67 260 173 365 213 38 16 18 16 -23
1z m2642 -352 c204 -24 308 -44 471 -90 291 -83 561 -208 803 -369 172 -115
264 -189 415 -336 156 -151 265 -282 386 -462 450 -671 591 -1503 390 -2298
-53 -208 -116 -375 -220 -580 -356 -699 -973 -1214 -1730 -1443 -472 -143
-1021 -154 -1511 -31 -200 50 -397 123 -570 209 -783 394 -1343 1116 -1523
1965 -44 206 -59 358 -59 595 0 235 14 373 58 589 199 960 901 1764 1834 2102
53 19 112 39 131 44 19 4 86 22 149 39 95 25 299 59 451 74 100 10 408 5 525
-8z"/>
<path d="M3085 5850 c-236 -18 -552 -95 -785 -192 -455 -188 -876 -538 -1152
-956 -547 -830 -567 -1899 -52 -2749 202 -333 512 -646 844 -853 564 -352
1263 -470 1920 -324 719 160 1338 626 1697 1279 146 264 244 566 295 900 19
133 17 560 -5 693 -78 482 -252 885 -537 1242 -310 390 -741 687 -1226 845
-123 40 -347 90 -469 104 -135 15 -395 21 -530 11z m285 -876 c15 -9 34 -29
43 -43 105 -179 957 -1664 955 -1666 -20 -19 -323 -185 -332 -182 -6 3 -227
378 -491 833 -510 881 -509 880 -471 938 21 33 203 136 239 136 16 0 41 -7 57
-16z m-281 -587 c161 -90 168 -122 71 -292 -34 -61 -63 -111 -65 -113 -3 -3
-316 176 -328 188 -15 14 112 230 147 251 47 29 73 24 175 -34z m-197 -359
c87 -50 161 -94 163 -98 3 -4 -60 -119 -139 -256 -78 -137 -265 -463 -415
-724 -150 -261 -274 -476 -276 -478 -8 -8 -330 189 -327 200 5 20 823 1448
829 1448 3 0 77 -41 165 -92z m-642 -580 c0 -7 -47 -94 -103 -193 l-103 -180
-252 -3 -252 -2 0 195 0 195 355 0 c277 0 355 -3 355 -12z m1545 -118 c39 -69
88 -155 109 -192 l38 -68 -642 0 c-596 0 -642 1 -636 17 4 9 52 97 108 195
l102 178 425 -2 426 -3 70 -125z m1255 -65 l0 -195 -248 0 -248 0 -107 188
c-59 103 -107 191 -107 195 0 4 160 7 355 7 l355 0 0 -195z m-556 -211 c48
-86 83 -160 79 -164 -4 -4 -79 -48 -166 -98 l-158 -91 -23 37 c-61 99 -159
286 -150 289 5 2 79 44 164 93 85 50 158 90 161 90 4 0 46 -70 93 -156z m169
-258 c43 -18 68 -47 122 -141 82 -144 123 -313 111 -456 -7 -83 -37 -212 -59
-254 l-13 -27 -46 79 c-65 111 -122 170 -227 233 -51 30 -109 71 -130 91 -70
67 -138 215 -125 272 13 63 129 155 247 197 63 23 78 24 120 6z m-2631 -288
l159 -92 -48 -47 c-152 -149 -457 -438 -460 -436 -2 2 35 151 82 331 47 180
85 329 85 332 0 13 39 -5 182 -88z"/>
<path d="M1988 6313 c721 -2 1903 -2 2625 0 721 1 131 2 -1313 2 -1444 0
-2034 -1 -1312 -2z"/>
</g>
</svg>
