<?xml version="1.0" standalone="no"?>
<!DOCTYPE svg PUBLIC "-//W3C//DTD SVG 20010904//EN"
 "http://www.w3.org/TR/2001/REC-SVG-20010904/DTD/svg10.dtd">
<svg version="1.0" xmlns="http://www.w3.org/2000/svg"
 width="658.000000pt" height="658.000000pt" viewBox="0 0 658.000000 658.000000"
 preserveAspectRatio="xMidYMid meet">
<metadata>
Created by potrace 1.11, written by Peter Selinger 2001-2013
</metadata>
<g transform="translate(0.000000,658.000000) scale(0.100000,-0.100000)"
fill="#000000" stroke="none">
<path d="M0 3290 l0 -3290 3290 0 3290 0 0 3290 0 3290 -3290 0 -3290 0 0
-3290z m3530 2585 c143 -30 280 -90 404 -180 44 -31 271 -176 505 -323 898
-560 1047 -655 1075 -681 16 -14 41 -53 57 -86 114 -238 -109 -497 -367 -426
-22 6 -141 75 -265 154 -123 79 -379 239 -569 357 -523 323 -549 339 -635 401
-102 73 -168 106 -263 130 -181 46 -359 9 -533 -113 -34 -23 -78 -54 -98 -67
-49 -33 -815 -508 -868 -538 -53 -30 -173 -148 -235 -231 -55 -73 -102 -169
-126 -256 -15 -55 -17 -130 -17 -726 l0 -665 24 -75 c12 -41 32 -93 43 -115
66 -130 207 -287 323 -359 39 -24 192 -119 340 -211 149 -92 329 -203 400
-248 72 -44 155 -100 186 -123 111 -85 242 -137 374 -149 138 -13 315 46 457
152 37 28 89 64 115 80 91 57 338 210 586 363 136 84 247 156 247 159 -1 3
-102 76 -226 161 -242 167 -289 199 -727 505 -158 110 -329 228 -380 263 -50
35 -111 81 -135 103 -158 145 -112 411 87 502 35 16 66 22 126 22 98 0 123
-12 305 -140 69 -49 262 -183 430 -300 168 -116 414 -288 548 -381 271 -189
367 -255 666 -462 114 -79 210 -150 213 -158 9 -23 -43 -134 -107 -232 -33
-49 -96 -125 -142 -170 -76 -75 -139 -117 -714 -476 -348 -217 -656 -412 -685
-434 -79 -59 -145 -96 -246 -136 -228 -91 -467 -99 -699 -21 -116 38 -190 77
-306 158 -46 32 -344 221 -663 420 -319 200 -598 375 -620 389 -199 127 -371
408 -420 688 -23 128 -22 1669 0 1791 31 165 103 339 190 454 108 144 169 193
478 386 161 100 351 219 422 264 393 248 587 372 645 412 234 162 528 224 800
168z"/>
</g>
</svg>
