<?xml version="1.0" standalone="no"?>
<!DOCTYPE svg PUBLIC "-//W3C//DTD SVG 20010904//EN"
 "http://www.w3.org/TR/2001/REC-SVG-20010904/DTD/svg10.dtd">
<svg version="1.0" xmlns="http://www.w3.org/2000/svg"
 width="658.000000pt" height="658.000000pt" viewBox="0 0 658.000000 658.000000"
 preserveAspectRatio="xMidYMid meet">
<metadata>
Created by potrace 1.11, written by Peter Selinger 2001-2013
</metadata>
<g transform="translate(0.000000,658.000000) scale(0.100000,-0.100000)" stroke="none">
<path d="M4133 6094 c-138 -30 -339 -132 -505 -256 -277 -207 -659 -584 -969
-958 -262 -316 -611 -822 -786 -1140 -16 -30 -56 -102 -88 -160 -32 -58 -107
-204 -166 -325 -496 -1020 -789 -1863 -925 -2659 -21 -123 -23 -160 -10 -145
1 2 25 40 51 83 86 144 128 249 300 751 170 496 188 542 263 670 86 147 213
247 356 280 36 9 147 20 247 25 214 12 343 30 499 70 340 87 627 248 895 503
l70 67 -50 -8 c-27 -4 -149 -7 -270 -6 -181 0 -242 4 -342 22 -110 20 -173 36
-173 44 0 2 73 3 163 3 237 1 451 36 683 113 367 122 726 344 993 616 41 41
72 78 69 82 -4 3 -28 -1 -55 -10 -77 -25 -224 -45 -420 -58 -294 -19 -558 8
-706 71 -51 22 -75 48 -36 38 103 -25 184 -32 374 -32 179 1 225 4 310 23 339
75 606 223 852 473 51 52 118 126 148 164 60 74 197 277 191 282 -2 2 -41 -6
-87 -16 -221 -52 -484 -69 -649 -43 -109 18 -210 43 -210 53 0 5 53 9 118 9
409 0 832 184 1130 490 87 89 211 254 200 265 -3 3 -26 -4 -52 -15 -110 -47
-162 -55 -356 -55 -124 0 -192 4 -205 12 -24 14 -23 15 90 38 265 56 512 177
689 337 68 62 193 205 185 212 -2 2 -65 -2 -139 -10 -334 -32 -695 -8 -1219
81 -223 38 -348 44 -458 19z"/>
</g>
</svg>
