<?xml version="1.0" standalone="no"?>
<!DOCTYPE svg PUBLIC "-//W3C//DTD SVG 20010904//EN"
 "http://www.w3.org/TR/2001/REC-SVG-20010904/DTD/svg10.dtd">
<svg version="1.0" xmlns="http://www.w3.org/2000/svg"
 width="658.000000pt" height="658.000000pt" viewBox="0 0 658.000000 658.000000"
 preserveAspectRatio="xMidYMid meet">
<metadata>
Created by potrace 1.11, written by Peter Selinger 2001-2013
</metadata>
<g transform="translate(0.000000,658.000000) scale(0.100000,-0.100000)"
fill="#000000" stroke="none">
<path d="M3985 5336 c-217 -44 -487 -235 -813 -574 -416 -433 -750 -907 -1025
-1457 -309 -618 -520 -1169 -648 -1690 -38 -156 -92 -445 -85 -452 7 -7 65 92
104 177 22 47 72 180 112 295 39 116 92 269 117 340 98 282 183 414 307 475
65 32 87 36 376 60 342 28 608 141 877 373 45 40 83 74 83 77 0 3 -91 5 -202
5 -162 0 -223 4 -303 20 l-100 20 140 6 c270 12 465 61 710 180 146 70 270
150 392 253 85 71 167 155 160 163 -2 1 -53 -7 -113 -19 -94 -19 -143 -22
-349 -23 -254 0 -309 7 -408 55 l-42 20 35 -4 c265 -33 374 -30 567 19 244 62
490 232 668 460 72 93 140 194 134 199 -2 3 -28 -2 -58 -10 -79 -20 -262 -44
-339 -44 -96 0 -292 33 -292 48 0 4 39 7 88 8 301 3 620 145 834 372 80 85
160 199 132 187 -70 -29 -151 -47 -230 -52 -95 -6 -224 3 -224 16 0 4 29 13
64 19 142 26 323 103 442 187 60 43 214 198 214 216 0 5 -23 6 -57 2 -32 -5
-164 -8 -293 -7 -247 0 -371 13 -694 69 -155 27 -192 29 -281 11z"/>
</g>
</svg>
